<?xml version="1.0" ?><!DOCTYPE svg  PUBLIC '-//W3C//DTD SVG 1.1//EN'  'http://www.w3.org/Graphics/SVG/1.1/DTD/svg11.dtd'><svg enable-background="new 0 0 91 91" height="91px" id="Layer_1" version="1.1" viewBox="0 0 91 91" width="91px" xml:space="preserve" xmlns="http://www.w3.org/2000/svg" xmlns:xlink="http://www.w3.org/1999/xlink"><g><path d="M69.116,40.925H53.119l-5.529-16.83c-0.229-0.697-0.881-1.168-1.615-1.168s-1.385,0.471-1.615,1.168l-5.529,16.83H22.834   c-0.739,0-1.395,0.477-1.619,1.182s0.031,1.475,0.633,1.902l12.943,9.213l-5.213,15.869c-0.229,0.699,0.016,1.463,0.607,1.9   c0.592,0.434,1.395,0.441,1.994,0.016l13.795-9.822l13.797,9.822c0.295,0.211,0.641,0.314,0.986,0.314   c0.354,0,0.708-0.111,1.007-0.33c0.592-0.438,0.837-1.201,0.608-1.9L57.16,53.222l12.941-9.213   c0.603-0.428,0.859-1.197,0.634-1.902C70.511,41.401,69.855,40.925,69.116,40.925z M54.168,51.179   c-0.605,0.432-0.861,1.207-0.629,1.916l3.988,12.141l-10.566-7.521c-0.295-0.211-0.641-0.316-0.986-0.316   c-0.345,0-0.689,0.105-0.986,0.316l-10.565,7.521l3.989-12.141c0.232-0.709-0.023-1.484-0.63-1.916l-9.629-6.855h11.908   c0.735,0,1.386-0.471,1.615-1.168l4.298-13.084l4.299,13.084c0.229,0.697,0.881,1.168,1.615,1.168h11.908L54.168,51.179z"/></g></svg>